<mxfile host="app.diagrams.net" agent="Mozilla/5.0 (X11; Linux x86_64; rv:134.0) Gecko/20100101 Firefox/134.0" version="24.8.6">
  <diagram name="Seite-1" id="KlUUx6PCSyj_rlglhxMy">
    <mxGraphModel dx="3963" dy="1603" grid="1" gridSize="10" guides="1" tooltips="1" connect="1" arrows="1" fold="1" page="1" pageScale="1" pageWidth="1000" pageHeight="1000" math="0" shadow="0">
      <root>
        <mxCell id="0" />
        <mxCell id="1" parent="0" />
        <mxCell id="tTwz_c5ANhp3bgcHJJ_s-1" value="Adapter" style="shape=hexagon;perimeter=hexagonPerimeter2;whiteSpace=wrap;html=1;fixedSize=1;size=230;verticalAlign=top;fontSize=24;" vertex="1" parent="1">
          <mxGeometry x="-490" y="60" width="1970" height="920" as="geometry" />
        </mxCell>
        <mxCell id="tTwz_c5ANhp3bgcHJJ_s-93" value="" style="rounded=1;whiteSpace=wrap;html=1;dashed=1;fillColor=none;" vertex="1" parent="1">
          <mxGeometry x="-370" y="342.55" width="290" height="221.25" as="geometry" />
        </mxCell>
        <mxCell id="tTwz_c5ANhp3bgcHJJ_s-2" value="Application und Ports" style="shape=hexagon;perimeter=hexagonPerimeter2;whiteSpace=wrap;html=1;fixedSize=1;size=192;fillColor=#ffe6cc;strokeColor=#d79b00;verticalAlign=top;fontSize=24;" vertex="1" parent="1">
          <mxGeometry y="190" width="1000" height="610" as="geometry" />
        </mxCell>
        <mxCell id="tTwz_c5ANhp3bgcHJJ_s-3" value="Domain" style="shape=hexagon;perimeter=hexagonPerimeter2;whiteSpace=wrap;html=1;fixedSize=1;size=72;fillColor=#e1d5e7;strokeColor=#9673a6;verticalAlign=top;fontSize=24;" vertex="1" parent="1">
          <mxGeometry x="290" y="260" width="420" height="290" as="geometry" />
        </mxCell>
        <mxCell id="tTwz_c5ANhp3bgcHJJ_s-4" value="" style="endArrow=none;dashed=1;html=1;dashPattern=1 3;strokeWidth=2;rounded=0;fillColor=#d5e8d4;strokeColor=#82b366;" edge="1" parent="1">
          <mxGeometry width="50" height="50" relative="1" as="geometry">
            <mxPoint x="499" y="1030" as="sourcePoint" />
            <mxPoint x="499" y="5" as="targetPoint" />
          </mxGeometry>
        </mxCell>
        <mxCell id="tTwz_c5ANhp3bgcHJJ_s-12" style="edgeStyle=orthogonalEdgeStyle;rounded=0;orthogonalLoop=1;jettySize=auto;html=1;entryX=0.5;entryY=0;entryDx=0;entryDy=0;" edge="1" parent="1" target="tTwz_c5ANhp3bgcHJJ_s-6">
          <mxGeometry relative="1" as="geometry">
            <mxPoint x="415.0256410256411" y="350" as="sourcePoint" />
          </mxGeometry>
        </mxCell>
        <mxCell id="tTwz_c5ANhp3bgcHJJ_s-13" style="edgeStyle=orthogonalEdgeStyle;rounded=0;orthogonalLoop=1;jettySize=auto;html=1;" edge="1" parent="1" target="tTwz_c5ANhp3bgcHJJ_s-7">
          <mxGeometry relative="1" as="geometry">
            <mxPoint x="415.0256410256411" y="400.4" as="sourcePoint" />
          </mxGeometry>
        </mxCell>
        <mxCell id="tTwz_c5ANhp3bgcHJJ_s-103" style="edgeStyle=orthogonalEdgeStyle;rounded=0;orthogonalLoop=1;jettySize=auto;html=1;" edge="1" parent="1" source="tTwz_c5ANhp3bgcHJJ_s-9" target="tTwz_c5ANhp3bgcHJJ_s-10">
          <mxGeometry relative="1" as="geometry" />
        </mxCell>
        <mxCell id="tTwz_c5ANhp3bgcHJJ_s-9" value="ShoppingList" style="rounded=0;whiteSpace=wrap;html=1;" vertex="1" parent="1">
          <mxGeometry x="360" y="316" width="130" height="29.6" as="geometry" />
        </mxCell>
        <mxCell id="tTwz_c5ANhp3bgcHJJ_s-10" value="QuantifiedIngredient" style="rounded=0;whiteSpace=wrap;html=1;" vertex="1" parent="1">
          <mxGeometry x="360" y="370.2" width="130" height="29.6" as="geometry" />
        </mxCell>
        <mxCell id="tTwz_c5ANhp3bgcHJJ_s-14" value="&lt;font color=&quot;#77767b&quot; style=&quot;font-size: 10px;&quot;&gt;&amp;lt;&amp;lt;interface&amp;gt;&amp;gt;&lt;/font&gt;&lt;br&gt;&lt;div&gt;ShoppingListService&lt;/div&gt;" style="rounded=0;whiteSpace=wrap;html=1;" vertex="1" parent="1">
          <mxGeometry x="390" y="420" width="185" height="30" as="geometry" />
        </mxCell>
        <mxCell id="tTwz_c5ANhp3bgcHJJ_s-15" value="&lt;font color=&quot;#77767b&quot; style=&quot;font-size: 10px;&quot;&gt;&amp;lt;&amp;lt;interface&amp;gt;&amp;gt;&lt;/font&gt;&lt;br&gt;&lt;div&gt;RecipeService&lt;/div&gt;" style="rounded=0;whiteSpace=wrap;html=1;" vertex="1" parent="1">
          <mxGeometry x="440" y="470.2" width="185" height="30" as="geometry" />
        </mxCell>
        <mxCell id="tTwz_c5ANhp3bgcHJJ_s-22" style="edgeStyle=orthogonalEdgeStyle;rounded=0;orthogonalLoop=1;jettySize=auto;html=1;endArrow=block;endFill=0;dashed=1;exitX=0.75;exitY=0;exitDx=0;exitDy=0;entryX=0;entryY=0.5;entryDx=0;entryDy=0;" edge="1" parent="1" source="tTwz_c5ANhp3bgcHJJ_s-18" target="tTwz_c5ANhp3bgcHJJ_s-14">
          <mxGeometry relative="1" as="geometry">
            <Array as="points">
              <mxPoint x="259" y="435" />
            </Array>
          </mxGeometry>
        </mxCell>
        <mxCell id="tTwz_c5ANhp3bgcHJJ_s-106" style="edgeStyle=orthogonalEdgeStyle;rounded=0;orthogonalLoop=1;jettySize=auto;html=1;" edge="1" parent="1" source="tTwz_c5ANhp3bgcHJJ_s-18" target="tTwz_c5ANhp3bgcHJJ_s-28">
          <mxGeometry relative="1" as="geometry" />
        </mxCell>
        <mxCell id="tTwz_c5ANhp3bgcHJJ_s-107" style="edgeStyle=orthogonalEdgeStyle;rounded=0;orthogonalLoop=1;jettySize=auto;html=1;" edge="1" parent="1" source="tTwz_c5ANhp3bgcHJJ_s-18" target="tTwz_c5ANhp3bgcHJJ_s-35">
          <mxGeometry relative="1" as="geometry">
            <Array as="points">
              <mxPoint x="670" y="617" />
              <mxPoint x="670" y="520" />
              <mxPoint x="842" y="520" />
            </Array>
          </mxGeometry>
        </mxCell>
        <mxCell id="tTwz_c5ANhp3bgcHJJ_s-18" value="ShoppingListServiceImpl" style="rounded=0;whiteSpace=wrap;html=1;" vertex="1" parent="1">
          <mxGeometry x="120" y="601.76" width="185" height="30" as="geometry" />
        </mxCell>
        <mxCell id="tTwz_c5ANhp3bgcHJJ_s-105" style="edgeStyle=orthogonalEdgeStyle;rounded=0;orthogonalLoop=1;jettySize=auto;html=1;" edge="1" parent="1" source="tTwz_c5ANhp3bgcHJJ_s-19" target="tTwz_c5ANhp3bgcHJJ_s-29">
          <mxGeometry relative="1" as="geometry" />
        </mxCell>
        <mxCell id="tTwz_c5ANhp3bgcHJJ_s-19" value="RecipeServiceImpl" style="rounded=0;whiteSpace=wrap;html=1;" vertex="1" parent="1">
          <mxGeometry x="200" y="664" width="185" height="30" as="geometry" />
        </mxCell>
        <mxCell id="tTwz_c5ANhp3bgcHJJ_s-23" style="edgeStyle=orthogonalEdgeStyle;rounded=0;orthogonalLoop=1;jettySize=auto;html=1;endArrow=block;endFill=0;dashed=1;exitX=0.75;exitY=0;exitDx=0;exitDy=0;entryX=0;entryY=0.5;entryDx=0;entryDy=0;" edge="1" parent="1" source="tTwz_c5ANhp3bgcHJJ_s-19" target="tTwz_c5ANhp3bgcHJJ_s-15">
          <mxGeometry relative="1" as="geometry">
            <mxPoint x="360" y="660" as="sourcePoint" />
            <mxPoint x="360" y="510" as="targetPoint" />
            <Array as="points">
              <mxPoint x="339" y="485" />
            </Array>
          </mxGeometry>
        </mxCell>
        <mxCell id="tTwz_c5ANhp3bgcHJJ_s-28" value="&lt;font style=&quot;font-size: 10px;&quot; color=&quot;#77767b&quot;&gt;&amp;lt;&amp;lt;interface&amp;gt;&amp;gt;&lt;/font&gt;&lt;br&gt;&lt;div&gt;ShoppingListRepository&lt;/div&gt;" style="rounded=0;whiteSpace=wrap;html=1;" vertex="1" parent="1">
          <mxGeometry x="710" y="601.76" width="185" height="30" as="geometry" />
        </mxCell>
        <mxCell id="tTwz_c5ANhp3bgcHJJ_s-29" value="&lt;font style=&quot;font-size: 10px;&quot; color=&quot;#77767b&quot;&gt;&amp;lt;&amp;lt;interface&amp;gt;&amp;gt;&lt;/font&gt;&lt;br&gt;&lt;div&gt;RecipeProvider&lt;/div&gt;" style="rounded=0;whiteSpace=wrap;html=1;" vertex="1" parent="1">
          <mxGeometry x="560" y="732.8" width="185" height="30" as="geometry" />
        </mxCell>
        <mxCell id="tTwz_c5ANhp3bgcHJJ_s-35" value="&lt;font style=&quot;font-size: 10px;&quot; color=&quot;#77767b&quot;&gt;&amp;lt;&amp;lt;interface&amp;gt;&amp;gt;&lt;/font&gt;&lt;br&gt;&lt;div&gt;ShoppingListEvents&lt;/div&gt;" style="rounded=0;whiteSpace=wrap;html=1;" vertex="1" parent="1">
          <mxGeometry x="750" y="430.00000000000006" width="185" height="30" as="geometry" />
        </mxCell>
        <mxCell id="tTwz_c5ANhp3bgcHJJ_s-50" value="RabbitMQShoppingListEventsImpl" style="rounded=0;whiteSpace=wrap;html=1;" vertex="1" parent="1">
          <mxGeometry x="1010" y="340.2" width="210" height="30" as="geometry" />
        </mxCell>
        <mxCell id="tTwz_c5ANhp3bgcHJJ_s-51" style="edgeStyle=orthogonalEdgeStyle;rounded=0;orthogonalLoop=1;jettySize=auto;html=1;endArrow=block;endFill=0;dashed=1;" edge="1" parent="1" source="tTwz_c5ANhp3bgcHJJ_s-50" target="tTwz_c5ANhp3bgcHJJ_s-35">
          <mxGeometry relative="1" as="geometry">
            <mxPoint x="950" y="1020" as="sourcePoint" />
            <mxPoint x="895" y="827" as="targetPoint" />
            <Array as="points">
              <mxPoint x="853" y="355" />
            </Array>
          </mxGeometry>
        </mxCell>
        <mxCell id="tTwz_c5ANhp3bgcHJJ_s-52" value="&lt;font style=&quot;font-size: 8px;&quot;&gt;ShoppingListEventDto&lt;/font&gt;" style="rounded=0;whiteSpace=wrap;html=1;" vertex="1" parent="1">
          <mxGeometry x="1020" y="380.2" width="100" height="10" as="geometry" />
        </mxCell>
        <mxCell id="tTwz_c5ANhp3bgcHJJ_s-54" value="&lt;font style=&quot;font-size: 7px;&quot;&gt;QuantifiedIngredientEventDto&lt;br&gt;&lt;/font&gt;" style="rounded=0;whiteSpace=wrap;html=1;" vertex="1" parent="1">
          <mxGeometry x="1020" y="395.4" width="100" height="10" as="geometry" />
        </mxCell>
        <mxCell id="tTwz_c5ANhp3bgcHJJ_s-56" value="&lt;font style=&quot;font-size: 10px;&quot; color=&quot;#77767b&quot;&gt;&amp;lt;&amp;lt;interface&amp;gt;&amp;gt;&lt;/font&gt;&lt;br&gt;&lt;div&gt;TypeormRepository&amp;lt;ShoppingList&amp;gt;&lt;/div&gt;" style="rounded=0;whiteSpace=wrap;html=1;" vertex="1" parent="1">
          <mxGeometry x="1050" y="629.8" width="210" height="30" as="geometry" />
        </mxCell>
        <mxCell id="tTwz_c5ANhp3bgcHJJ_s-108" style="edgeStyle=orthogonalEdgeStyle;rounded=0;orthogonalLoop=1;jettySize=auto;html=1;" edge="1" parent="1" source="tTwz_c5ANhp3bgcHJJ_s-57" target="tTwz_c5ANhp3bgcHJJ_s-56">
          <mxGeometry relative="1" as="geometry" />
        </mxCell>
        <mxCell id="tTwz_c5ANhp3bgcHJJ_s-57" value="&lt;div&gt;TypeormShoppingListRepositoryImpl&lt;/div&gt;" style="rounded=0;whiteSpace=wrap;html=1;" vertex="1" parent="1">
          <mxGeometry x="1050" y="533.8" width="210" height="30" as="geometry" />
        </mxCell>
        <mxCell id="tTwz_c5ANhp3bgcHJJ_s-59" value="&lt;font style=&quot;font-size: 8px;&quot;&gt;ShoppingListEntity&lt;/font&gt;" style="rounded=0;whiteSpace=wrap;html=1;" vertex="1" parent="1">
          <mxGeometry x="1060" y="669.8" width="100" height="10" as="geometry" />
        </mxCell>
        <mxCell id="tTwz_c5ANhp3bgcHJJ_s-60" style="edgeStyle=orthogonalEdgeStyle;rounded=0;orthogonalLoop=1;jettySize=auto;html=1;endArrow=block;endFill=0;dashed=1;" edge="1" parent="1" source="tTwz_c5ANhp3bgcHJJ_s-57" target="tTwz_c5ANhp3bgcHJJ_s-28">
          <mxGeometry relative="1" as="geometry">
            <mxPoint x="1080" y="365" as="sourcePoint" />
            <mxPoint x="863" y="406" as="targetPoint" />
            <Array as="points">
              <mxPoint x="793" y="550" />
            </Array>
          </mxGeometry>
        </mxCell>
        <mxCell id="tTwz_c5ANhp3bgcHJJ_s-111" style="edgeStyle=orthogonalEdgeStyle;rounded=0;orthogonalLoop=1;jettySize=auto;html=1;" edge="1" parent="1" source="tTwz_c5ANhp3bgcHJJ_s-71" target="tTwz_c5ANhp3bgcHJJ_s-14">
          <mxGeometry relative="1" as="geometry">
            <Array as="points">
              <mxPoint x="90" y="145" />
              <mxPoint x="90" y="435" />
            </Array>
          </mxGeometry>
        </mxCell>
        <mxCell id="tTwz_c5ANhp3bgcHJJ_s-71" value="GrpcShoppingListController" style="rounded=0;whiteSpace=wrap;html=1;" vertex="1" parent="1">
          <mxGeometry x="-190" y="130" width="210" height="30" as="geometry" />
        </mxCell>
        <mxCell id="tTwz_c5ANhp3bgcHJJ_s-112" style="edgeStyle=orthogonalEdgeStyle;rounded=0;orthogonalLoop=1;jettySize=auto;html=1;" edge="1" parent="1" source="tTwz_c5ANhp3bgcHJJ_s-73" target="tTwz_c5ANhp3bgcHJJ_s-14">
          <mxGeometry relative="1" as="geometry">
            <Array as="points">
              <mxPoint x="10" y="390" />
              <mxPoint x="10" y="435" />
            </Array>
          </mxGeometry>
        </mxCell>
        <mxCell id="tTwz_c5ANhp3bgcHJJ_s-73" value="RestV1ShoppingListController" style="rounded=0;whiteSpace=wrap;html=1;" vertex="1" parent="1">
          <mxGeometry x="-330" y="374" width="210" height="30" as="geometry" />
        </mxCell>
        <mxCell id="tTwz_c5ANhp3bgcHJJ_s-113" style="edgeStyle=orthogonalEdgeStyle;rounded=0;orthogonalLoop=1;jettySize=auto;html=1;" edge="1" parent="1">
          <mxGeometry relative="1" as="geometry">
            <mxPoint x="-120" y="435.2037037037037" as="sourcePoint" />
            <mxPoint x="390" y="435.2037037037037" as="targetPoint" />
            <Array as="points">
              <mxPoint x="140" y="435" />
              <mxPoint x="140" y="435" />
            </Array>
          </mxGeometry>
        </mxCell>
        <mxCell id="tTwz_c5ANhp3bgcHJJ_s-114" style="edgeStyle=orthogonalEdgeStyle;rounded=0;orthogonalLoop=1;jettySize=auto;html=1;" edge="1" parent="1" target="tTwz_c5ANhp3bgcHJJ_s-15">
          <mxGeometry relative="1" as="geometry">
            <mxPoint x="-120" y="435" as="sourcePoint" />
            <mxPoint x="440" y="480" as="targetPoint" />
            <Array as="points">
              <mxPoint x="-40" y="435" />
              <mxPoint x="-40" y="485" />
            </Array>
          </mxGeometry>
        </mxCell>
        <mxCell id="tTwz_c5ANhp3bgcHJJ_s-74" value="RestV2ShoppingListController" style="rounded=0;whiteSpace=wrap;html=1;" vertex="1" parent="1">
          <mxGeometry x="-330" y="419.20000000000005" width="210" height="30" as="geometry" />
        </mxCell>
        <mxCell id="tTwz_c5ANhp3bgcHJJ_s-94" value="&lt;font style=&quot;font-size: 8px;&quot;&gt;ShoppingListRequestDto&lt;/font&gt;" style="rounded=0;whiteSpace=wrap;html=1;" vertex="1" parent="1">
          <mxGeometry x="-180" y="170" width="100" height="10" as="geometry" />
        </mxCell>
        <mxCell id="tTwz_c5ANhp3bgcHJJ_s-95" value="&lt;font style=&quot;font-size: 8px;&quot;&gt;ShoppingListResponseDto&lt;/font&gt;" style="rounded=0;whiteSpace=wrap;html=1;" vertex="1" parent="1">
          <mxGeometry x="-180" y="184.79999999999995" width="100" height="10" as="geometry" />
        </mxCell>
        <mxCell id="tTwz_c5ANhp3bgcHJJ_s-99" value="&lt;font style=&quot;font-size: 6px;&quot;&gt;QuantifiedIngredientRequestDto&lt;/font&gt;" style="rounded=0;whiteSpace=wrap;html=1;" vertex="1" parent="1">
          <mxGeometry x="-180" y="199.99999999999994" width="100" height="10" as="geometry" />
        </mxCell>
        <mxCell id="tTwz_c5ANhp3bgcHJJ_s-102" value="&lt;font style=&quot;font-size: 8px;&quot;&gt;QuantifiedIngredientEntity&lt;/font&gt;" style="rounded=0;whiteSpace=wrap;html=1;" vertex="1" parent="1">
          <mxGeometry x="1060" y="684" width="100" height="10" as="geometry" />
        </mxCell>
        <mxCell id="tTwz_c5ANhp3bgcHJJ_s-109" value="GrpcRecipeProviderImpl" style="rounded=0;whiteSpace=wrap;html=1;" vertex="1" parent="1">
          <mxGeometry x="697.5" y="860" width="210" height="30" as="geometry" />
        </mxCell>
        <mxCell id="tTwz_c5ANhp3bgcHJJ_s-110" style="edgeStyle=orthogonalEdgeStyle;rounded=0;orthogonalLoop=1;jettySize=auto;html=1;endArrow=block;endFill=0;dashed=1;" edge="1" parent="1" source="tTwz_c5ANhp3bgcHJJ_s-109" target="tTwz_c5ANhp3bgcHJJ_s-29">
          <mxGeometry relative="1" as="geometry">
            <mxPoint x="1060" y="560" as="sourcePoint" />
            <mxPoint x="803" y="612" as="targetPoint" />
            <Array as="points">
              <mxPoint x="803" y="748" />
            </Array>
          </mxGeometry>
        </mxCell>
        <mxCell id="tTwz_c5ANhp3bgcHJJ_s-123" value="&lt;font style=&quot;font-size: 8px;&quot;&gt;ShoppingListRequestDto&lt;/font&gt;" style="rounded=0;whiteSpace=wrap;html=1;" vertex="1" parent="1">
          <mxGeometry x="-290" y="464" width="100" height="10" as="geometry" />
        </mxCell>
        <mxCell id="tTwz_c5ANhp3bgcHJJ_s-124" value="&lt;font style=&quot;font-size: 8px;&quot;&gt;ShoppingListResponseDto&lt;/font&gt;" style="rounded=0;whiteSpace=wrap;html=1;" vertex="1" parent="1">
          <mxGeometry x="-290" y="478.79999999999995" width="100" height="10" as="geometry" />
        </mxCell>
        <mxCell id="tTwz_c5ANhp3bgcHJJ_s-125" value="&lt;font style=&quot;font-size: 6px;&quot;&gt;QuantifiedIngredientRequestDto&lt;/font&gt;" style="rounded=0;whiteSpace=wrap;html=1;" vertex="1" parent="1">
          <mxGeometry x="-290" y="493.99999999999994" width="100" height="10" as="geometry" />
        </mxCell>
        <mxCell id="tTwz_c5ANhp3bgcHJJ_s-126" value="&lt;font style=&quot;font-size: 6px;&quot;&gt;QuantifiedIngredientResponseDto&lt;/font&gt;" style="rounded=0;whiteSpace=wrap;html=1;" vertex="1" parent="1">
          <mxGeometry x="-290" y="508.99999999999994" width="100" height="10" as="geometry" />
        </mxCell>
        <mxCell id="tTwz_c5ANhp3bgcHJJ_s-127" value="&lt;font style=&quot;font-size: 8px;&quot;&gt;RecipeRequestDto&lt;/font&gt;" style="rounded=0;whiteSpace=wrap;html=1;" vertex="1" parent="1">
          <mxGeometry x="-290" y="524" width="100" height="10" as="geometry" />
        </mxCell>
        <mxCell id="tTwz_c5ANhp3bgcHJJ_s-129" style="edgeStyle=orthogonalEdgeStyle;rounded=0;orthogonalLoop=1;jettySize=auto;html=1;" edge="1" parent="1" source="tTwz_c5ANhp3bgcHJJ_s-128" target="tTwz_c5ANhp3bgcHJJ_s-14">
          <mxGeometry relative="1" as="geometry">
            <Array as="points">
              <mxPoint x="60" y="778" />
              <mxPoint x="60" y="435" />
            </Array>
          </mxGeometry>
        </mxCell>
        <mxCell id="tTwz_c5ANhp3bgcHJJ_s-128" value="RabbitMQRecipeEventSubscriber" style="rounded=0;whiteSpace=wrap;html=1;" vertex="1" parent="1">
          <mxGeometry x="-260" y="762.8" width="210" height="30" as="geometry" />
        </mxCell>
        <mxCell id="tTwz_c5ANhp3bgcHJJ_s-130" value="&lt;font style=&quot;font-size: 8px;&quot;&gt;RecipeEventDto&lt;/font&gt;" style="rounded=0;whiteSpace=wrap;html=1;" vertex="1" parent="1">
          <mxGeometry x="-250" y="800" width="100" height="10" as="geometry" />
        </mxCell>
      </root>
    </mxGraphModel>
  </diagram>
</mxfile>
